HIERARCHY
ROOT hip
{
	OFFSET 0.000000 0.000000 0.000000
	CHANNELS 6 Xposition Yposition Zposition Zrotation Yrotation Xrotation 
	JOINT lhipjoint
	{
		OFFSET 0.000000 0.000000 0.000000
		CHANNELS 3 Zrotation Yrotation Xrotation
		JOINT lfemur
		{
			OFFSET 1.363060 -1.794630 0.839290
			CHANNELS 3 Zrotation Yrotation Xrotation
			JOINT ltibia
			{
				OFFSET 2.448110 -6.726130 0.000000
				CHANNELS 3 Zrotation Yrotation Xrotation
				JOINT lfoot
				{
					OFFSET 2.562200 -7.039590 0.000000
					CHANNELS 3 Zrotation Yrotation Xrotation
					JOINT ltoes
					{
						OFFSET 0.157640 -0.433110 2.322550
						CHANNELS 3 Zrotation Yrotation Xrotation
						End Site
						{
							OFFSET 0.000000 0.000000 0.000000
						}
					}
				}
			}
		}
	}
	JOINT rhipjoint
	{
		OFFSET 0.000000 0.000000 0.000000
		CHANNELS 3 Zrotation Yrotation Xrotation
		JOINT rfemur
		{
			OFFSET -1.305520 -1.794630 0.839290
			CHANNELS 3 Zrotation Yrotation Xrotation
			JOINT rtibia
			{
				OFFSET -2.542530 -6.985550 0.000000
				CHANNELS 3 Zrotation Yrotation Xrotation
				JOINT rfoot
				{
					OFFSET -2.568260 -7.056230 0.000000
					CHANNELS 3 Zrotation Yrotation Xrotation
					JOINT rtoes
					{
						OFFSET -0.164730 -0.452590 2.363150
						CHANNELS 3 Zrotation Yrotation Xrotation
						End Site
						{
							OFFSET 0.000000 0.000000 0.000000
						}
					}
				}
			}
		}
	}
	JOINT lowerback
	{
		OFFSET 0.000000 0.000000 0.000000
		CHANNELS 3 Zrotation Yrotation Xrotation
		JOINT upperback
		{
			OFFSET 0.028270 2.035590 -0.193380
			CHANNELS 3 Zrotation Yrotation Xrotation
			JOINT thorax
			{
				OFFSET 0.056720 2.048850 -0.042750
				CHANNELS 3 Zrotation Yrotation Xrotation
				JOINT lowerneck
				{
					OFFSET 0.000000 0.000000 0.000000
					CHANNELS 3 Zrotation Yrotation Xrotation
					JOINT upperneck
					{
						OFFSET -0.054170 1.746240 0.172020
						CHANNELS 3 Zrotation Yrotation Xrotation
						JOINT head
						{
							OFFSET 0.104070 1.761360 -0.123970
							CHANNELS 3 Zrotation Yrotation Xrotation
							End Site
							{
								OFFSET 0.000000 0.000000 0.000000
							}
						}
					}
				}
				JOINT lclavicle
				{
					OFFSET 0.000000 0.000000 0.000000
					CHANNELS 3 Zrotation Yrotation Xrotation
					JOINT lhumerus
					{
						OFFSET 3.362410 1.200890 -0.311210
						CHANNELS 3 Zrotation Yrotation Xrotation
						JOINT lradius
						{
							OFFSET 4.983000 -0.000000 -0.000000
							CHANNELS 3 Zrotation Yrotation Xrotation
							JOINT lwrist
							{
								OFFSET 3.483560 -0.000000 -0.000000
								CHANNELS 3 Zrotation Yrotation Xrotation
								JOINT lhand
								{
									OFFSET 0.000000 0.000000 0.000000
									CHANNELS 3 Zrotation Yrotation Xrotation
									JOINT lfingers
									{
										OFFSET 0.715260 -0.000000 -0.000000
										CHANNELS 3 Zrotation Yrotation Xrotation
										End Site
										{
											OFFSET 0.000000 0.000000 0.000000
										}
									}
								}
								JOINT lthumb
								{
									OFFSET 0.000000 0.000000 0.000000
									CHANNELS 3 Zrotation Yrotation Xrotation
									End Site
									{
										OFFSET 0.000000 0.000000 0.000000
									}
								}
							}
						}
					}
				}
				JOINT rclavicle
				{
					OFFSET 0.000000 0.000000 0.000000
					CHANNELS 3 Zrotation Yrotation Xrotation
					JOINT rhumerus
					{
						OFFSET -3.136600 1.374050 -0.404650
						CHANNELS 3 Zrotation Yrotation Xrotation
						JOINT rradius
						{
							OFFSET -5.241900 -0.000000 -0.000000
							CHANNELS 3 Zrotation Yrotation Xrotation
							JOINT rwrist
							{
								OFFSET -3.444170 -0.000000 -0.000000
								CHANNELS 3 Zrotation Yrotation Xrotation
								JOINT rhand
								{
									OFFSET 0.000000 0.000000 0.000000
									CHANNELS 3 Zrotation Yrotation Xrotation
									JOINT rfingers
									{
										OFFSET -0.622530 -0.000000 -0.000000
										CHANNELS 3 Zrotation Yrotation Xrotation
										End Site
										{
											OFFSET 0.000000 0.000000 0.000000
										}
									}
								}
								JOINT rthumb
								{
									OFFSET 0.000000 0.000000 0.000000
									CHANNELS 3 Zrotation Yrotation Xrotation
									End Site
									{
										OFFSET 0.000000 0.000000 0.000000
									}
								}
							}
						}
					}
				}
			}
		}
	}
}
MOTION
Frames: 11
Frame Time: 0.008333
-0.796869 17.311398 1.502488 -178.503791 2.163795 163.719675 8.533703 1.129059 -0.723533 -29.949919 -13.538809 0.604194 3.465429 11.064154 33.363317 -0.762396 6.574635 7.492138 0.276700 -3.383100 -9.347300 -11.391208 -2.492578 -5.208058 25.722731 -7.103205 8.969965 -10.677325 -16.297323 60.991496 -1.885058 -1.313929 20.807125 -0.570900 4.839100 -13.450200 3.161658 0.792876 19.566863 0.173703 1.729392 -2.039734 -2.725338 2.083753 -2.245186 -4.737876 -1.744668 -0.894848 0.589530 0.074706 15.746552 -0.067100 0.639700 3.829200 0.118435 -5.027644 3.208390 -80.317516 6.203203 -21.402376 -3.777774 -15.503110 -1.403141 0.365082 0.672454 40.358186 12.875100 -3.616563 -1.012100 -7.125000 0.000000 0.000000 -10.222300 25.474400 4.906000 -0.649690 7.260676 4.167950 78.387387 -10.758292 45.347912 -110.060278 51.457230 -63.873655 2.382500 -5.875883 -52.909620 -12.155204 14.719563 -3.213900 7.125000 0.000000 0.000000 12.413100 -9.517100 10.444600 
-0.810601 17.322543 1.429249 -178.332157 2.170891 163.799110 8.555797 1.152255 -0.754915 -29.914249 -13.502680 0.845955 3.474721 11.064795 33.401090 -0.745456 6.476425 7.193777 0.273600 -3.364400 -9.295000 -11.448996 -2.554601 -5.132293 26.043359 -6.961876 8.068425 -10.593800 -16.292337 60.744177 -1.898741 -1.009106 20.258721 -0.530900 4.669000 -12.966800 3.230534 0.709709 19.544655 0.187968 1.637482 -2.035618 -2.688699 2.039269 -2.187633 -4.741642 -1.755995 -0.953537 0.632220 0.067687 15.814720 -0.042200 0.634900 3.902100 0.076410 -4.999091 3.210097 -80.184461 6.247179 -19.157259 -3.406823 -16.686647 -1.507631 0.384022 0.777205 38.030393 13.013118 -3.396863 -0.997300 -7.125000 0.000000 0.000000 -10.113200 25.591200 4.824000 -0.634049 7.228728 4.168495 78.386354 -10.538069 45.208288 -109.707859 51.625660 -63.422225 2.373210 -5.880894 -52.746535 -12.074876 14.620133 -3.172100 7.125000 0.000000 0.000000 12.460800 -9.621800 10.459900 
-0.823040 17.339161 1.357901 -178.196646 2.157368 163.862695 8.573165 1.176524 -0.785526 -29.896338 -13.410117 1.078219 3.478718 11.061491 33.425475 -0.712499 6.343403 6.954576 0.269100 -3.337100 -9.218600 -11.503544 -2.610742 -5.065815 26.340704 -6.820853 7.275741 -10.466884 -16.257380 60.346382 -1.914760 -0.663886 19.649435 -0.503100 4.546900 -12.620600 3.240569 0.626619 19.550420 0.204053 1.539902 -2.032524 -2.604558 1.991048 -2.131901 -4.767934 -1.759279 -1.042602 0.675316 0.080252 15.904517 -0.021400 0.641200 4.011500 0.043108 -4.979396 3.205118 -80.063408 6.260573 -16.954813 -3.015452 -17.850824 -1.614399 0.396386 0.880193 35.837795 13.107277 -3.242947 -0.993100 -7.125000 0.000000 0.000000 -10.032900 25.645300 4.771700 -0.617125 7.201661 4.162898 78.389627 -10.373512 45.077137 -109.405615 51.766945 -63.048411 2.360135 -5.880951 -52.595828 -11.985576 14.545439 -3.129900 7.125000 0.000000 0.000000 12.514300 -9.710000 10.484300 
-0.835976 17.347022 1.290235 -178.042905 2.120491 163.958832 8.592664 1.198375 -0.810612 -29.857838 -13.380488 1.246245 3.486514 11.068700 33.474532 -0.673119 6.197915 6.717433 0.269200 -3.337900 -9.220900 -11.558671 -2.668027 -5.001921 26.634879 -6.701688 6.484658 -10.314415 -16.207556 59.862223 -1.941494 -0.258132 18.993353 -0.462200 4.361100 -12.094700 3.294594 0.542710 19.521214 0.219249 1.444110 -2.028559 -2.560840 1.943713 -2.086361 -4.759569 -1.769126 -1.066742 0.710994 0.075418 15.964257 -0.009700 0.641700 4.060100 -0.001741 -4.956763 3.209653 -79.920861 6.307391 -14.652819 -2.522780 -19.105594 -1.733746 0.395764 0.986491 33.671036 13.109601 -3.174947 -1.001800 -7.125000 0.000000 0.000000 -10.011000 25.616500 4.767800 -0.595065 7.180758 4.163221 78.405561 -10.282479 44.932407 -109.194085 51.871227 -62.787951 2.349587 -5.872822 -52.465409 -11.876235 14.436991 -3.077000 7.125000 0.000000 0.000000 12.577000 -9.838700 10.506100 
-0.848017 17.353789 1.225156 -177.925237 2.080958 164.055156 8.613320 1.219177 -0.831478 -29.858296 -13.370225 1.397493 3.499259 11.084802 33.547366 -0.639664 6.066269 6.443990 0.262600 -3.296600 -9.105700 -11.613295 -2.721594 -4.942354 26.905216 -6.557692 5.745098 -10.140065 -16.139081 59.294298 -1.972001 0.175370 18.291938 -0.423300 4.175800 -11.571800 3.294950 0.465900 19.501600 0.235332 1.349684 -2.026661 -2.462807 1.894929 -2.059734 -4.810750 -1.775494 -1.070555 0.759407 0.082431 16.041080 0.026300 0.645900 4.119900 -0.044126 -4.947572 3.210420 -79.809329 6.354333 -12.466920 -1.997998 -20.333272 -1.857082 0.391024 1.084850 31.730771 13.101749 -3.227999 -1.036500 -7.125000 0.000000 0.000000 -9.990700 25.472400 4.792000 -0.578606 7.165204 4.163788 78.415765 -10.247245 44.805585 -108.986605 51.971000 -62.537264 2.335224 -5.862928 -52.379329 -11.748918 14.356883 -3.019400 7.125000 0.000000 0.000000 12.654800 -9.948000 10.545800 
-0.858963 17.358267 1.162266 -177.808245 2.035541 164.158781 8.635037 1.239674 -0.852896 -29.849934 -13.343761 1.511887 3.516427 11.109665 33.645713 -0.600309 5.926424 6.214196 0.259900 -3.279600 -9.058200 -11.667880 -2.774738 -4.884903 27.192484 -6.379517 5.048966 -9.946034 -16.054107 58.643974 -1.993877 0.583482 17.531570 -0.380300 3.960300 -10.965000 3.311625 0.396499 19.474302 0.247967 1.266454 -2.021930 -2.415463 1.855605 -2.014241 -4.809228 -1.793416 -1.088080 0.807741 0.065641 16.106828 0.050800 0.639300 4.171500 -0.096940 -4.925650 3.212901 -79.644414 6.370057 -10.294185 -1.402257 -21.563698 -1.985562 0.377879 1.172827 29.983735 13.035917 -3.423813 -1.097200 -7.125000 0.000000 0.000000 -10.004400 25.197100 4.863900 -0.555989 7.144573 4.163996 78.428679 -10.211284 44.686668 -108.828022 52.048285 -62.354143 2.330535 -5.854662 -52.315450 -11.688646 14.280819 -2.988900 7.125000 0.000000 0.000000 12.688100 -10.037000 10.551600 
-0.870008 17.358566 1.102262 -177.703685 1.968267 164.256608 8.657787 1.257377 -0.870422 -29.864782 -13.369602 1.626479 3.533865 11.136272 33.745498 -0.565428 5.799747 5.974766 0.260500 -3.283800 -9.069800 -11.721623 -2.824594 -4.831565 27.451351 -6.190504 4.387933 -9.739557 -15.955108 57.938036 -2.021683 1.003760 16.773703 -0.338900 3.740800 -10.348600 3.315090 0.316373 19.468771 0.261627 1.167871 -2.018037 -2.356041 1.808368 -1.988750 -4.820138 -1.799798 -1.076709 0.853078 0.068237 16.173684 0.074800 0.643900 4.213500 -0.147294 -4.909411 3.215107 -79.509480 6.368293 -8.269068 -0.746659 -22.776031 -2.123723 0.359880 1.263073 28.465873 12.912202 -3.553230 -1.137400 -7.125000 0.000000 0.000000 -10.061600 24.989500 4.941900 -0.535755 7.130821 4.165763 78.448774 -10.209816 44.596929 -108.690540 52.118614 -62.181015 2.329086 -5.835939 -52.240171 -11.596735 14.129895 -2.939600 7.125000 0.000000 0.000000 12.735400 -10.207700 10.547800 
-0.880655 17.365830 1.042756 -177.619230 1.887107 164.372909 8.678276 1.275734 -0.888070 -29.888441 -13.362836 1.724121 3.544798 11.155814 33.818945 -0.523313 5.657253 5.760961 0.261500 -3.289700 -9.086300 -11.774720 -2.870673 -4.784915 27.682144 -5.979585 3.789063 -9.505890 -15.829854 57.119340 -2.052531 1.433552 16.000719 -0.309500 3.576600 -9.888400 3.294717 0.248767 19.442068 0.275590 1.083452 -2.012394 -2.265295 1.766727 -1.952995 -4.852033 -1.814902 -1.049430 0.891718 0.054997 16.223707 0.099500 0.639500 4.228600 -0.199867 -4.890861 3.220336 -79.371407 6.380025 -6.138064 -0.027475 -24.046953 -2.275488 0.343228 1.349356 26.941974 12.818804 -3.810762 -1.208600 -7.125000 0.000000 0.000000 -10.092900 24.652900 5.037900 -0.507592 7.111616 4.172012 78.414434 -10.246162 44.510458 -108.579828 52.172524 -62.078356 2.336607 -5.807522 -52.225561 -11.569775 13.970416 -2.914500 7.125000 0.000000 0.000000 12.736700 -10.381000 10.503000 
-0.890606 17.368914 0.985737 -177.550439 1.810707 164.471959 8.701086 1.290941 -0.906732 -29.932798 -13.374129 1.846049 3.552756 11.169212 33.873705 -0.488794 5.536456 5.549310 0.254600 -3.246600 -8.966100 -11.825598 -2.914651 -4.741705 27.900969 -5.748017 3.241457 -9.267919 -15.691695 56.257328 -2.061381 1.773690 15.159421 -0.313000 3.596800 -9.945000 3.281048 0.191200 19.445522 0.284388 1.012539 -2.004569 -2.226362 1.738136 -1.911424 -4.863778 -1.836849 -1.037003 0.946713 0.033610 16.291460 0.139100 0.629300 4.266700 -0.265363 -4.867075 3.224220 -79.190919 6.323234 -4.167423 0.734313 -25.241514 -2.429552 0.319207 1.431498 25.525458 12.623587 -4.000294 -1.251900 -7.125000 0.000000 0.000000 -10.202200 24.393800 5.156400 -0.485636 7.091551 4.174492 78.426501 -10.299598 44.427591 -108.503100 52.214613 -61.996265 2.345766 -5.788145 -52.148856 -11.566742 13.821912 -2.901000 7.125000 0.000000 0.000000 12.722500 -10.529600 10.451100 
-0.899960 17.373691 0.931206 -177.485742 1.733624 164.583572 8.721018 1.307261 -0.924211 -29.968737 -13.368243 1.953593 3.552403 11.171461 33.887919 -0.456484 5.427561 5.381089 0.254800 -3.247600 -8.968900 -11.877869 -2.955925 -4.702999 28.113748 -5.502021 2.741309 -9.011370 -15.530536 55.303332 -2.060220 2.053163 14.328426 -0.343000 3.763400 -10.412000 3.246018 0.130146 19.451706 0.295570 0.936803 -1.996933 -2.143257 1.704724 -1.871016 -4.905680 -1.841768 -1.021867 1.005956 0.030099 16.344509 0.185700 0.625900 4.290300 -0.326050 -4.845707 3.227251 -79.039768 6.263617 -2.194329 1.539539 -26.451914 -2.599901 0.299458 1.519824 24.098526 12.519614 -4.112911 -1.287400 -7.125000 0.000000 0.000000 -10.251900 24.200400 5.228900 -0.460172 7.068017 4.180461 78.382341 -10.352662 44.375877 -108.401929 52.265583 -61.896495 2.352823 -5.761870 -52.137315 -11.546240 13.677166 -2.879600 7.125000 0.000000 0.000000 12.721200 -10.686600 10.408200 
-0.908419 17.378268 0.879262 -177.432200 1.652347 164.654706 8.736971 1.324283 -0.944392 -29.998148 -13.303740 2.086616 3.545804 11.163842 33.877432 -0.409930 5.281885 5.251734 0.254900 -3.248400 -8.971200 -11.928440 -2.992264 -4.673091 28.313099 -5.263642 2.336556 -8.745015 -15.349217 54.289169 -2.049356 2.279428 13.488869 -0.387000 3.994700 -11.061700 3.203853 0.077933 19.520161 0.305778 0.878368 -1.987740 -2.057916 1.681368 -1.843217 -4.943056 -1.871350 -1.000873 1.055232 0.001039 16.410828 0.223800 0.611800 4.329800 -0.384798 -4.828626 3.228791 -78.899443 6.199972 -0.255403 2.407921 -27.669963 -2.785857 0.274654 1.615239 22.648784 12.381171 -4.111728 -1.294800 -7.125000 0.000000 0.000000 -10.331900 24.116400 5.291500 -0.430778 7.049162 4.186089 78.325753 -10.417254 44.305961 -108.315826 52.303252 -61.839118 2.372196 -5.727031 -52.139155 -11.584113 13.477957 -2.875200 7.125000 0.000000 0.000000 12.674600 -10.886800 10.314900 
